<svg width="475" height="536" viewBox="0 0 475 536" fill="none" xmlns="http://www.w3.org/2000/svg">
<rect x="0.424194" y="0.633163" width="465.513" height="466.681" fill="url(#paint0_radial)"/>
<ellipse cx="238.773" cy="289.114" rx="185.227" ry="178.199" fill="#BFD9F8"/>
<rect x="53.5459" y="163.366" width="53.1216" height="303.948" fill="url(#paint1_linear)"/>
<path d="M368.082 463.279C368.082 470.707 288.006 467.314 247.859 467.314C207.712 467.314 163.983 470.707 163.983 463.279C163.983 455.851 207.712 448.485 247.859 448.485C288.006 448.485 368.082 455.851 368.082 463.279Z" fill="#49C66C"/>
<rect x="394.643" y="396.034" width="25.1629" height="71.2797" rx="5" fill="#522323"/>
<path d="M406.525 256.164L465.242 421.587H347.809L406.525 256.164Z" fill="url(#paint2_linear)"/>
<path d="M407.224 195.644L458.072 361.067H356.377L407.224 195.644Z" fill="url(#paint3_linear)"/>
<path d="M407.224 153.952L448.386 295.166H366.062L407.224 153.952Z" fill="url(#paint4_linear)"/>
<path d="M235.278 222.542L367.239 457.563H103.317L235.278 222.542Z" fill="#90ABF0"/>
<path d="M235.278 222.877L367.239 457.899H235.278L221.298 340.892L235.278 222.877Z" fill="#718FDD"/>
<path d="M235.278 222.542L282.109 305.926L224.793 310.633L188.447 305.926L235.278 222.542Z" fill="#AFC6FF"/>
<path d="M235.278 222.542L282.109 305.926L224.793 310.633L235.278 222.542Z" fill="#A2B6E8"/>
<path d="M155.595 451.175H351.307L351.307 467.314H155.595L155.595 451.175Z" fill="#49C66C"/>
<path d="M405.826 445.123C405.826 458.121 418.73 465.969 433.785 465.969C448.84 465.969 460.346 458.121 460.346 445.123C460.346 432.124 440.452 395.362 425.397 395.362C425.397 429.656 405.826 432.124 405.826 445.123Z" fill="url(#paint5_linear)"/>
<path d="M418.408 451.674C418.408 460.588 425.687 465.969 434.179 465.969C442.672 465.969 449.162 460.588 449.162 451.674C449.162 442.761 437.94 417.552 429.448 417.552C429.448 441.069 418.408 442.761 418.408 451.674Z" fill="url(#paint6_linear)"/>
<path d="M403.03 462.607C403.03 460.007 405.138 457.899 407.738 457.899H461.23C463.83 457.899 465.938 460.007 465.938 462.607V462.607C465.938 465.206 463.83 467.314 461.23 467.314H407.738C405.138 467.314 403.03 465.206 403.03 462.607V462.607Z" fill="#522323"/>
<path d="M0.424194 285.752L26.985 270.286L53.5458 285.752L53.5458 467.314H0.424194L0.424194 285.752Z" fill="url(#paint7_linear)"/>
<path d="M363.189 367.791L421.906 467.65H304.473L363.189 367.791Z" fill="#DC3D47"/>
<path d="M363.189 367.791L421.906 467.65H363.189L363.189 367.791Z" fill="#C83740"/>
<path d="M363.189 408.642L397.089 457.815L384.175 467.65H342.203L328.482 457.815L363.189 408.642Z" fill="#9C2F35"/>
<g filter="url(#filter0_i)">
<path d="M363.189 408.642L384.159 467.65H342.219L363.189 408.642Z" fill="#470F3B"/>
</g>
<rect x="64.7292" y="180.85" width="9.78556" height="65.9001" fill="url(#paint8_linear)"/>
<rect x="85.6985" y="180.85" width="9.78556" height="65.9001" fill="url(#paint9_linear)"/>
<rect x="64.7294" y="268.268" width="9.78556" height="65.9001" fill="url(#paint10_linear)"/>
<rect x="85.6986" y="268.268" width="9.78556" height="65.9001" fill="url(#paint11_linear)"/>
<rect x="11.6078" y="300.546" width="9.78556" height="65.9001" fill="url(#paint12_linear)"/>
<rect x="32.5768" y="300.546" width="9.78556" height="65.9001" fill="url(#paint13_linear)"/>
<rect x="11.6077" y="381.24" width="9.78556" height="65.9001" fill="url(#paint14_linear)"/>
<rect x="32.5767" y="381.24" width="9.78556" height="65.9001" fill="url(#paint15_linear)"/>
<rect x="95.4838" y="453.865" width="90.866" height="13.449" rx="6.7245" fill="#653939"/>
<rect x="98.2797" y="400.069" width="83.8763" height="13.449" rx="6.7245" fill="#653939"/>
<rect x="113.657" y="386.62" width="55.9175" height="13.449" rx="6.7245" fill="#804E3F"/>
<rect x="113.657" y="386.62" width="55.9175" height="13.449" rx="6.7245" fill="#804E3F"/>
<rect x="127.637" y="373.171" width="27.9588" height="13.449" rx="6.7245" fill="#653939"/>
<rect x="95.4839" y="426.967" width="90.866" height="13.449" rx="6.7245" fill="#653939"/>
<rect x="95.4839" y="440.416" width="90.866" height="13.449" rx="6.7245" fill="#804E3F"/>
<rect x="95.4839" y="413.518" width="90.866" height="13.449" rx="6.7245" fill="#804E3F"/>
<ellipse cx="102.474" cy="420.242" rx="6.98969" ry="6.7245" fill="#885F5A"/>
<ellipse cx="102.474" cy="433.691" rx="6.98969" ry="6.7245" fill="#885F5A"/>
<ellipse cx="102.474" cy="447.14" rx="6.98969" ry="6.7245" fill="#885F5A"/>
<ellipse cx="102.473" cy="460.589" rx="6.98969" ry="6.7245" fill="#885F5A"/>
<ellipse cx="179.36" cy="406.793" rx="6.98969" ry="6.7245" fill="#885F5A"/>
<ellipse cx="179.36" cy="420.242" rx="6.98969" ry="6.7245" fill="#885F5A"/>
<ellipse cx="179.36" cy="433.691" rx="6.98969" ry="6.7245" fill="#885F5A"/>
<ellipse cx="179.36" cy="447.14" rx="6.98969" ry="6.7245" fill="#885F5A"/>
<ellipse cx="179.36" cy="460.589" rx="6.98969" ry="6.7245" fill="#885F5A"/>
<g filter="url(#filter1_i)">
<rect x="127.637" y="417.552" width="27.9588" height="49.7613" fill="#522323"/>
</g>
<rect width="71.3271" height="13.7168" rx="6.85838" transform="matrix(0.721319 0.692603 -0.721319 0.692603 141.616 361.067)" fill="#522323"/>
<path d="M94.7353 415.272C92.0057 412.646 92.0057 408.389 94.7353 405.763L136.252 365.821C138.982 363.195 143.407 363.195 146.137 365.821C148.867 368.447 148.867 372.705 146.137 375.331L104.62 415.272C101.891 417.899 97.465 417.899 94.7353 415.272Z" fill="#522323"/>
<g filter="url(#filter2_d)">
<ellipse cx="151.402" cy="134.451" rx="30.7546" ry="28.9154" fill="url(#paint16_linear)"/>
</g>
<g filter="url(#filter3_d)">
<path d="M267.43 182.195C267.43 176.253 272.247 171.436 278.19 171.436H312.164H343.343C349.286 171.436 354.103 176.253 354.103 182.195V182.195C354.103 188.137 349.286 192.954 343.343 192.954H278.19C272.247 192.954 267.43 188.137 267.43 182.195V182.195Z" fill="white"/>
</g>
<ellipse cx="300.981" cy="166.728" rx="19.5711" ry="15.4664" fill="white"/>
<ellipse cx="330.338" cy="174.798" rx="12.5814" ry="15.4664" fill="white"/>
<defs>
<filter id="filter0_i" x="342.219" y="408.642" width="41.9404" height="63.0075" filterUnits="userSpaceOnUse" color-interpolation-filters="sRGB">
<feFlood flood-opacity="0" result="BackgroundImageFix"/>
<feBlend mode="normal" in="SourceGraphic" in2="BackgroundImageFix" result="shape"/>
<feColorMatrix in="SourceAlpha" type="matrix" values="0 0 0 0 0 0 0 0 0 0 0 0 0 0 0 0 0 0 127 0" result="hardAlpha"/>
<feOffset dy="4"/>
<feGaussianBlur stdDeviation="2"/>
<feComposite in2="hardAlpha" operator="arithmetic" k2="-1" k3="1"/>
<feColorMatrix type="matrix" values="0 0 0 0 0 0 0 0 0 0 0 0 0 0 0 0 0 0 0.25 0"/>
<feBlend mode="normal" in2="shape" result="effect1_innerShadow"/>
</filter>
<filter id="filter1_i" x="127.637" y="417.552" width="27.9588" height="53.7613" filterUnits="userSpaceOnUse" color-interpolation-filters="sRGB">
<feFlood flood-opacity="0" result="BackgroundImageFix"/>
<feBlend mode="normal" in="SourceGraphic" in2="BackgroundImageFix" result="shape"/>
<feColorMatrix in="SourceAlpha" type="matrix" values="0 0 0 0 0 0 0 0 0 0 0 0 0 0 0 0 0 0 127 0" result="hardAlpha"/>
<feOffset dy="4"/>
<feGaussianBlur stdDeviation="2"/>
<feComposite in2="hardAlpha" operator="arithmetic" k2="-1" k3="1"/>
<feColorMatrix type="matrix" values="0 0 0 0 0 0 0 0 0 0 0 0 0 0 0 0 0 0 0.25 0"/>
<feBlend mode="normal" in2="shape" result="effect1_innerShadow"/>
</filter>
<filter id="filter2_d" x="116.647" y="102.535" width="69.5093" height="65.8307" filterUnits="userSpaceOnUse" color-interpolation-filters="sRGB">
<feFlood flood-opacity="0" result="BackgroundImageFix"/>
<feColorMatrix in="SourceAlpha" type="matrix" values="0 0 0 0 0 0 0 0 0 0 0 0 0 0 0 0 0 0 127 0"/>
<feOffset dy="1"/>
<feGaussianBlur stdDeviation="2"/>
<feColorMatrix type="matrix" values="0 0 0 0 0 0 0 0 0 0 0 0 0 0 0 0 0 0 0.25 0"/>
<feBlend mode="normal" in2="BackgroundImageFix" result="effect1_dropShadow"/>
<feBlend mode="normal" in="SourceGraphic" in2="effect1_dropShadow" result="shape"/>
</filter>
<filter id="filter3_d" x="263.43" y="168.436" width="94.6722" height="29.5184" filterUnits="userSpaceOnUse" color-interpolation-filters="sRGB">
<feFlood flood-opacity="0" result="BackgroundImageFix"/>
<feColorMatrix in="SourceAlpha" type="matrix" values="0 0 0 0 0 0 0 0 0 0 0 0 0 0 0 0 0 0 127 0"/>
<feOffset dy="1"/>
<feGaussianBlur stdDeviation="2"/>
<feColorMatrix type="matrix" values="0 0 0 0 0 0 0 0 0 0 0 0 0 0 0 0 0 0 0.25 0"/>
<feBlend mode="normal" in2="BackgroundImageFix" result="effect1_dropShadow"/>
<feBlend mode="normal" in="SourceGraphic" in2="effect1_dropShadow" result="shape"/>
</filter>
<radialGradient id="paint0_radial" cx="0" cy="0" r="1" gradientUnits="userSpaceOnUse" gradientTransform="translate(233.181 233.973) rotate(90) scale(233.34 232.757)">
<stop stop-color="#8600F0"/>
<stop offset="0.9375" stop-color="#3C0077"/>
</radialGradient>
<linearGradient id="paint1_linear" x1="80.1067" y1="163.366" x2="80.1067" y2="467.314" gradientUnits="userSpaceOnUse">
<stop stop-color="#370972"/>
<stop offset="1" stop-color="#691EC9"/>
</linearGradient>
<linearGradient id="paint2_linear" x1="407.224" y1="277.683" x2="443.625" y2="422.947" gradientUnits="userSpaceOnUse">
<stop offset="0.296875" stop-color="#57B794"/>
<stop offset="0.65625" stop-color="#4BA383"/>
</linearGradient>
<linearGradient id="paint3_linear" x1="391.847" y1="317.357" x2="449.779" y2="358.446" gradientUnits="userSpaceOnUse">
<stop stop-color="#43B88E"/>
<stop offset="1" stop-color="#369D78"/>
</linearGradient>
<linearGradient id="paint4_linear" x1="372.276" y1="211.783" x2="468.418" y2="250.606" gradientUnits="userSpaceOnUse">
<stop stop-color="#79D8B6"/>
<stop offset="0.640625" stop-color="#4BBA92"/>
</linearGradient>
<linearGradient id="paint5_linear" x1="433.086" y1="395.362" x2="433.086" y2="465.969" gradientUnits="userSpaceOnUse">
<stop stop-color="#FF7121"/>
<stop offset="1" stop-color="#CD662C"/>
</linearGradient>
<linearGradient id="paint6_linear" x1="433.785" y1="417.552" x2="433.785" y2="465.969" gradientUnits="userSpaceOnUse">
<stop stop-color="#FFDC21"/>
<stop offset="1" stop-color="#F9A90F"/>
</linearGradient>
<linearGradient id="paint7_linear" x1="28.383" y1="285.752" x2="28.383" y2="467.314" gradientUnits="userSpaceOnUse">
<stop stop-color="#370972"/>
<stop offset="1" stop-color="#691EC9"/>
</linearGradient>
<linearGradient id="paint8_linear" x1="69.622" y1="180.85" x2="69.622" y2="246.75" gradientUnits="userSpaceOnUse">
<stop stop-color="#478AEE"/>
<stop offset="1" stop-color="#478AEE" stop-opacity="0.82"/>
</linearGradient>
<linearGradient id="paint9_linear" x1="90.5913" y1="180.85" x2="90.5913" y2="246.75" gradientUnits="userSpaceOnUse">
<stop stop-color="#478AEE"/>
<stop offset="1" stop-color="#478AEE" stop-opacity="0.82"/>
</linearGradient>
<linearGradient id="paint10_linear" x1="69.6221" y1="268.268" x2="69.6221" y2="334.169" gradientUnits="userSpaceOnUse">
<stop stop-color="#478AEE"/>
<stop offset="1" stop-color="#478AEE" stop-opacity="0.82"/>
</linearGradient>
<linearGradient id="paint11_linear" x1="90.5914" y1="268.268" x2="90.5914" y2="334.169" gradientUnits="userSpaceOnUse">
<stop stop-color="#478AEE"/>
<stop offset="1" stop-color="#478AEE" stop-opacity="0.82"/>
</linearGradient>
<linearGradient id="paint12_linear" x1="16.5006" y1="300.546" x2="16.5006" y2="366.446" gradientUnits="userSpaceOnUse">
<stop stop-color="#478AEE"/>
<stop offset="1" stop-color="#478AEE" stop-opacity="0.82"/>
</linearGradient>
<linearGradient id="paint13_linear" x1="37.4696" y1="300.546" x2="37.4696" y2="366.446" gradientUnits="userSpaceOnUse">
<stop stop-color="#478AEE"/>
<stop offset="1" stop-color="#478AEE" stop-opacity="0.82"/>
</linearGradient>
<linearGradient id="paint14_linear" x1="16.5004" y1="381.24" x2="16.5004" y2="447.14" gradientUnits="userSpaceOnUse">
<stop stop-color="#478AEE"/>
<stop offset="1" stop-color="#478AEE" stop-opacity="0.82"/>
</linearGradient>
<linearGradient id="paint15_linear" x1="37.4694" y1="381.24" x2="37.4694" y2="447.14" gradientUnits="userSpaceOnUse">
<stop stop-color="#478AEE"/>
<stop offset="1" stop-color="#478AEE" stop-opacity="0.82"/>
</linearGradient>
<linearGradient id="paint16_linear" x1="151.402" y1="105.535" x2="151.402" y2="163.366" gradientUnits="userSpaceOnUse">
<stop stop-color="#EAED44"/>
<stop offset="1" stop-color="#FFA722"/>
</linearGradient>
</defs>
</svg>
